HIERARCHY
ROOT Hips
{
    OFFSET   0.000000   0.000000   0.000000
    CHANNELS 6 Xposition Yposition Zposition Zrotation Xrotation Yrotation
    JOINT Chest
    {
        OFFSET   0.000000   8.007230   0.000000
        CHANNELS 3 Zrotation Xrotation Yrotation
        JOINT Chest2
        {
            OFFSET   0.000000  22.077100   0.000000
            CHANNELS 3 Zrotation Xrotation Yrotation
            JOINT Neck
            {
                OFFSET   0.000000  23.254800  -0.000021
                CHANNELS 3 Zrotation Xrotation Yrotation
                JOINT Head
                {
                    OFFSET   0.000000  14.370000   1.956610
                    CHANNELS 3 Zrotation Xrotation Yrotation
                    End Site
                    {
                        OFFSET   0.000000  19.566000   0.000000
                    }
                }
            }
            JOINT LeftCollar
            {
                OFFSET   3.911900  19.017000  -0.467063
                CHANNELS 3 Zrotation Xrotation Yrotation
                JOINT LeftShoulder
                {
                    OFFSET  10.383700   0.000000   0.000000
                    CHANNELS 3 Zrotation Xrotation Yrotation
                    JOINT LeftElbow
                    {
                        OFFSET  26.662100   0.001529   0.000325
                        CHANNELS 3 Zrotation Xrotation Yrotation
                        JOINT LeftWrist
                        {
                            OFFSET  28.869000  -0.000011  -0.000096
                            CHANNELS 3 Zrotation Xrotation Yrotation
                            JOINT LeftFinger0
                            {
                                OFFSET   2.044650  -2.323460   3.252850
                                CHANNELS 3 Zrotation Xrotation Yrotation
                                JOINT LeftFinger01
                                {
                                    OFFSET   3.088130   0.000000   0.000000
                                    CHANNELS 3 Zrotation Xrotation Yrotation
                                    JOINT LeftFinger02
                                    {
                                        OFFSET   2.639460   0.000000   0.000000
                                        CHANNELS 3 Zrotation Xrotation Yrotation
                                        End Site
                                        {
                                            OFFSET   2.582190   0.000000   0.000000
                                        }
                                    }
                                }
                            }
                            JOINT LeftFinger1
                            {
                                OFFSET   8.364480   0.000000   3.252850
                                CHANNELS 3 Zrotation Xrotation Yrotation
                                JOINT LeftFinger11
                                {
                                    OFFSET   4.646930   0.000000   0.000000
                                    CHANNELS 3 Zrotation Xrotation Yrotation
                                    JOINT LeftFinger12
                                    {
                                        OFFSET   2.323460   0.000000   0.000000
                                        CHANNELS 3 Zrotation Xrotation Yrotation
                                        End Site
                                        {
                                            OFFSET   2.273050   0.000000   0.000000
                                        }
                                    }
                                }
                            }
                            JOINT LeftFinger2
                            {
                                OFFSET   8.364480   0.000016   1.078090
                                CHANNELS 3 Zrotation Xrotation Yrotation
                                JOINT LeftFinger21
                                {
                                    OFFSET   5.111620   0.000000   0.000000
                                    CHANNELS 3 Zrotation Xrotation Yrotation
                                    JOINT LeftFinger22
                                    {
                                        OFFSET   2.788160   0.000017   0.000000
                                        CHANNELS 3 Zrotation Xrotation Yrotation
                                        End Site
                                        {
                                            OFFSET   2.727660   0.000000   0.000000
                                        }
                                    }
                                }
                            }
                            JOINT LeftFinger3
                            {
                                OFFSET   7.899780   0.000015  -1.078090
                                CHANNELS 3 Zrotation Xrotation Yrotation
                                JOINT LeftFinger31
                                {
                                    OFFSET   4.646920   0.000000   0.000000
                                    CHANNELS 3 Zrotation Xrotation Yrotation
                                    JOINT LeftFinger32
                                    {
                                        OFFSET   2.323470   0.000000   0.000000
                                        CHANNELS 3 Zrotation Xrotation Yrotation
                                        End Site
                                        {
                                            OFFSET   2.273050   0.000000   0.000000
                                        }
                                    }
                                }
                            }
                            JOINT LeftFinger4
                            {
                                OFFSET   7.435090   0.000000  -3.252850
                                CHANNELS 3 Zrotation Xrotation Yrotation
                                JOINT LeftFinger41
                                {
                                    OFFSET   3.717550   0.000000   0.000000
                                    CHANNELS 3 Zrotation Xrotation Yrotation
                                    JOINT LeftFinger42
                                    {
                                        OFFSET   1.858760   0.000000   0.000000
                                        CHANNELS 3 Zrotation Xrotation Yrotation
                                        End Site
                                        {
                                            OFFSET   1.818440   0.000000   0.000000
                                        }
                                    }
                                }
                            }
                        }
                    }
                }
            }
            JOINT RightCollar
            {
                OFFSET  -3.911900  19.017000  -0.467062
                CHANNELS 3 Zrotation Xrotation Yrotation
                JOINT RightShoulder
                {
                    OFFSET -10.383700   0.000015   0.000000
                    CHANNELS 3 Zrotation Xrotation Yrotation
                    JOINT RightElbow
                    {
                        OFFSET -26.662100   0.001341   0.000385
                        CHANNELS 3 Zrotation Xrotation Yrotation
                        JOINT RightWrist
                        {
                            OFFSET -28.869000   0.000025  -0.000080
                            CHANNELS 3 Zrotation Xrotation Yrotation
                            JOINT RightFinger0
                            {
                                OFFSET  -2.044650  -2.323490   3.252850
                                CHANNELS 3 Zrotation Xrotation Yrotation
                                JOINT RightFinger01
                                {
                                    OFFSET  -3.088130   0.000000   0.000000
                                    CHANNELS 3 Zrotation Xrotation Yrotation
                                    JOINT RightFinger02
                                    {
                                        OFFSET  -2.639460   0.000000   0.000000
                                        CHANNELS 3 Zrotation Xrotation Yrotation
                                        End Site
                                        {
                                            OFFSET  -2.582190   0.000000   0.000000
                                        }
                                    }
                                }
                            }
                            JOINT RightFinger1
                            {
                                OFFSET  -8.364480   0.000000   3.252850
                                CHANNELS 3 Zrotation Xrotation Yrotation
                                JOINT RightFinger11
                                {
                                    OFFSET  -4.646930   0.000000   0.000000
                                    CHANNELS 3 Zrotation Xrotation Yrotation
                                    JOINT RightFinger12
                                    {
                                        OFFSET  -2.323470   0.000000   0.000000
                                        CHANNELS 3 Zrotation Xrotation Yrotation
                                        End Site
                                        {
                                            OFFSET  -2.273050   0.000000   0.000000
                                        }
                                    }
                                }
                            }
                            JOINT RightFinger2
                            {
                                OFFSET  -8.364480   0.000000   1.078090
                                CHANNELS 3 Zrotation Xrotation Yrotation
                                JOINT RightFinger21
                                {
                                    OFFSET  -5.111610   0.000000   0.000000
                                    CHANNELS 3 Zrotation Xrotation Yrotation
                                    JOINT RightFinger22
                                    {
                                        OFFSET  -2.788160   0.000000   0.000000
                                        CHANNELS 3 Zrotation Xrotation Yrotation
                                        End Site
                                        {
                                            OFFSET  -2.727660   0.000000   0.000000
                                        }
                                    }
                                }
                            }
                            JOINT RightFinger3
                            {
                                OFFSET  -7.899780   0.000000  -1.078090
                                CHANNELS 3 Zrotation Xrotation Yrotation
                                JOINT RightFinger31
                                {
                                    OFFSET  -4.646920   0.000000   0.000000
                                    CHANNELS 3 Zrotation Xrotation Yrotation
                                    JOINT RightFinger32
                                    {
                                        OFFSET  -2.323470   0.000000   0.000000
                                        CHANNELS 3 Zrotation Xrotation Yrotation
                                        End Site
                                        {
                                            OFFSET  -2.273050   0.000000   0.000000
                                        }
                                    }
                                }
                            }
                            JOINT RightFinger4
                            {
                                OFFSET  -7.435090   0.000000  -3.252850
                                CHANNELS 3 Zrotation Xrotation Yrotation
                                JOINT RightFinger41
                                {
                                    OFFSET  -3.717550   0.000000   0.000000
                                    CHANNELS 3 Zrotation Xrotation Yrotation
                                    JOINT RightFinger42
                                    {
                                        OFFSET  -1.858770   0.000000   0.000000
                                        CHANNELS 3 Zrotation Xrotation Yrotation
                                        End Site
                                        {
                                            OFFSET  -1.818440   0.000000   0.000000
                                        }
                                    }
                                }
                            }
                        }
                    }
                }
            }
        }
    }
    JOINT LeftHip
    {
        OFFSET   9.783010   0.000000   0.000000
        CHANNELS 3 Zrotation Xrotation Yrotation
        JOINT LeftKnee
        {
            OFFSET   0.000070 -41.789100   0.000028
            CHANNELS 3 Zrotation Xrotation Yrotation
            JOINT LeftAnkle
            {
                OFFSET   0.000087 -41.133200  -0.000100
                CHANNELS 3 Zrotation Xrotation Yrotation
                JOINT LeftToe
                {
                    OFFSET   0.000000  -6.358960  14.674500
                    CHANNELS 3 Zrotation Xrotation Yrotation
                    End Site
                    {
                        OFFSET   0.000000   0.000000   3.913200
                    }
                }
            }
        }
    }
    JOINT RightHip
    {
        OFFSET  -9.783020   0.000000   0.000000
        CHANNELS 3 Zrotation Xrotation Yrotation
        JOINT RightKnee
        {
            OFFSET   0.000044 -41.789100  -0.000870
            CHANNELS 3 Zrotation Xrotation Yrotation
            JOINT RightAnkle
            {
                OFFSET  -0.000090 -41.133200  -0.000245
                CHANNELS 3 Zrotation Xrotation Yrotation
                JOINT RightToe
                {
                    OFFSET   0.000000  -6.358960  14.674500
                    CHANNELS 3 Zrotation Xrotation Yrotation
                    End Site
                    {
                        OFFSET   0.000000   0.000000   3.913200
                    }
                }
            }
        }
    }
}
MOTION
Frames: 6
Frame Time:   0.016667
  9.343400  87.750800  -5.110410   4.948470 -23.608800   0.822076  -3.514960  11.906200   2.331170  -7.792420  23.628800   5.608420  -1.792040  -1.069040  -0.033056  -2.947080  -2.161320   5.750140   1.448180  -7.780780   6.658110 -48.331800  -9.209340 -94.166700 -14.381800 -42.587600 -57.649300 -44.216900 -50.693800 -37.782900  53.670300  43.764200 -84.260000 -21.862700  -0.013302   0.013304  -5.931390  -0.007495   0.005264 -15.764400   0.214096  -0.725799 -12.899100   0.023254  -0.020635  -9.029360   0.018659  -0.009456 -89.050500  -0.187634  -0.000788 -92.172600  -0.000157   0.001307 -69.129400  -0.003155  -0.001273 -82.332700  -4.973710   0.663886 -82.362300  -0.004016   0.003003 -61.771800  -0.003036  -0.000513 -21.844100  -7.162340  17.219600 -34.424800   0.032801   0.012622 -22.926900   0.019964   0.008788  -2.067010  -5.583210   6.641920  54.067600 -13.405500  92.956600  -7.914600 -30.395500  49.109900  25.346500 -53.477200  27.505600 -60.242000  45.593100  91.480600 -12.437600  -0.001425  -0.000563 -11.218800  -0.003846   0.019235  22.027000   5.177420  12.514100  18.478700   0.013473   0.001524  12.935100   0.009801  -0.007326  89.380900  -0.005308   0.006308  93.382000   0.022151   0.021454  70.036600   0.021039  -0.009872  89.017400  -4.997160  -0.086045  92.999100   0.017342   0.015249  69.749300   0.015422  -0.006990  29.771100  -4.168030  -7.237780  45.057200   0.006605  -0.013436  30.008100   0.004672  -0.014139  -7.930700  22.283600  -0.334528  -2.629930   2.381120  15.486300   1.143870  -3.479490   5.914780   0.000000   0.000000   0.000000 -13.056300   8.049470   0.146877  -3.920390  28.434400  -9.723440   6.851280  -9.292340  -2.014770  -0.000000   0.000000   0.000000
  9.256290  87.786900  -5.101520   4.763750 -23.400800   0.783645  -3.461990  11.766100   2.295960  -7.662170  23.354800   5.509380  -1.720570  -1.009690  -0.029540  -2.829320  -2.042120   5.637030   1.341360  -8.107900   6.339880 -46.831800  -8.945960 -92.466600 -13.399800 -42.562500 -57.164800 -40.987700 -51.298700 -35.523700  60.245700  47.566400 -88.191000 -23.885900  -0.032073   0.036363  -6.943010  -0.018466   0.015685 -16.933400   0.030387   0.037069 -13.838300   0.061269  -0.031068  -9.686830   0.046322  -0.012965 -89.508300  -0.413348  -0.006499 -90.703800   0.016850  -0.038297 -68.027800   0.031265  -0.000267 -81.002700  -4.995940   0.775751 -81.038000  -0.001776  -0.041395 -60.778600   0.025860  -0.017431 -22.193100  -7.366670  17.477000 -34.980700   0.053394   0.012906 -23.297100   0.030964   0.017694  -1.910130  -5.452540   6.598590  53.328400 -13.115000  91.720800  -7.992110 -30.331300  48.508700  22.842200 -52.861200  25.071200 -59.987800  45.845800  92.032100  -9.634720   0.015379   0.002648  -9.817360   0.004724   0.021339  22.584200   5.087770  11.946800  18.902700   0.021474   0.001306  13.231900   0.014377  -0.007590  89.845700  -0.019444   0.021579  92.166200   0.034870   0.032373  69.124700   0.032434  -0.014938  89.039400  -4.997140  -0.085831  92.120600   0.027655   0.023110  69.090400   0.023886  -0.008402  29.915000  -4.115100  -7.111460  45.263400   0.013902  -0.015536  30.145400   0.004685  -0.016364  -7.693820  22.118200  -0.521798  -2.623430   2.317860  15.510400   1.119080  -3.433720   5.975590  -0.000000   0.000000   0.000000 -12.829800   8.047330   0.088802  -3.860610  28.080600  -9.814120   6.750120  -9.139680  -2.013690   0.000000   0.000000   0.000000
  9.167180  87.827400  -5.091230   4.578060 -23.176700   0.747557  -3.403470  11.611600   2.252070  -7.517730  23.052700   5.390320  -1.641870  -0.939868  -0.027413  -2.700930  -1.901560   5.528210   1.174210  -8.397420   6.005650 -45.125400  -8.649570 -90.507500 -12.282400 -42.303400 -56.584600 -37.368600 -51.478400 -33.193300  57.890500  46.520300 -87.327700 -23.846800   0.116978   0.080647  -6.923610   0.067688  -0.057447 -18.449000   0.314489  -0.336366 -15.023600   0.117681  -0.024476 -10.516500   0.083349  -0.001057 -90.711700   0.077525  -0.089127 -90.970300   0.138389  -0.152145 -68.227700   0.149118   0.047135 -81.361400  -5.018260   0.689386 -81.390700   0.021334  -0.170946 -61.043000   0.118076  -0.053111 -23.503000  -7.472230  16.837300 -36.823200   0.052560   0.012833 -24.524200   0.029608   0.019663  -1.738680  -5.325550   6.556710  52.513400 -12.594300  90.276000  -8.368080 -29.957700  47.650300  20.689700 -52.497900  23.153700 -59.565300  45.923500  92.129800  -7.703100   0.032077   0.003975  -8.851530   0.009131   0.029424  23.336000   5.051300  11.435200  19.487600   0.023928   0.001075  13.641300   0.014503  -0.007847  89.769900  -0.032254   0.037626  90.747800   0.044637   0.045192  68.060900   0.044430  -0.016517  89.021800  -5.005810  -0.081206  91.036000   0.036315   0.032985  68.276900   0.033528  -0.009771  30.217300  -4.039660  -6.908890  45.700000   0.021585  -0.016148  30.436200   0.006747  -0.017409  -7.456810  21.924300  -0.698038  -2.609220   2.271980  15.502200   1.100720  -3.390850   6.060030  -0.000000   0.000000  -0.000000 -12.594800   8.035160   0.065820  -3.787210  27.724300  -9.928200   6.663090  -8.991050  -2.039350   0.000000   0.000000   0.000000
  9.073590  87.870700  -5.084770   4.385770 -22.955600   0.701872  -3.339650  11.462700   2.212920  -7.364600  22.761800   5.281130  -1.552690  -0.898125  -0.025963  -2.553050  -1.817650   5.401770   0.955478  -8.628890   5.648090 -43.570900  -8.252970 -88.551600 -10.815000 -41.691800 -55.700100 -32.975700 -51.072500 -30.230700  54.476300  45.066200 -85.766400 -23.807900   0.266319   0.117596  -6.903990   0.154014  -0.130670 -20.261100   0.598556  -0.709830 -16.456400   0.155208  -0.012278 -11.519500   0.107398   0.015903 -91.581500   0.568395  -0.166772 -91.236500   0.245348  -0.235303 -68.427800   0.237467   0.093675 -81.720100  -5.039720   0.603014 -81.743300   0.042523  -0.265707 -61.307400   0.186071  -0.078273 -25.016100  -7.645050  16.199900 -39.052800   0.046719   0.012322 -26.009100   0.024906   0.019944  -1.554260  -5.188440   6.497870  51.680600 -11.906300  88.755800  -8.833810 -29.352000  46.640700  18.588000 -52.106800  21.407200 -59.384400  45.934600  92.143800  -5.751690   0.042074   0.004363  -7.875810   0.010942   0.035437  24.115400   4.940280  10.783700  20.083200   0.024279   0.000839  14.058300   0.014522  -0.008105  89.239200  -0.047849   0.047407  89.214700   0.049816   0.053086  66.911100   0.051594  -0.016742  88.896100  -5.018410  -0.076794  89.826900   0.041004   0.039097  67.370200   0.039339  -0.010929  30.625700  -3.969210  -6.688210  46.295000   0.026254  -0.016235  30.832500   0.009882  -0.017665  -7.215240  21.728100  -0.858756  -2.594410   2.235520  15.494200   1.078730  -3.353030   6.139950   0.000000   0.000000   0.000000 -12.347300   8.026190   0.062536  -3.716560  27.348400 -10.038900   6.569280  -8.834840  -2.088430  -0.000000   0.000000   0.000000
  8.976120  87.915500  -5.088940   4.185720 -22.752000   0.634895  -3.273890  11.342900   2.190550  -7.212970  22.527500   5.207080  -1.444140  -0.901418  -0.025075  -2.373100  -1.824730   5.234560   0.665948  -8.773810   5.237760 -42.531900  -7.879920 -86.626800  -9.294110 -40.333500 -54.567000 -27.512800 -49.777000 -26.123500  51.983100  44.450600 -83.539500 -24.104500   0.266657   0.125546  -7.052340   0.154215  -0.130775 -22.446100   0.279824  -0.131812 -18.229300   0.138220   0.003552 -12.760500   0.093801   0.024204 -90.239000  -0.068634  -0.082381 -89.980600   0.240704  -0.220229 -67.485800   0.225949   0.092251 -80.397400  -5.047610   0.725500 -80.407000   0.041303  -0.248285 -60.308900   0.174834  -0.071148 -26.158100  -8.063310  16.240900 -40.862400   0.027010   0.010526 -27.214400   0.012881   0.015029  -1.349990  -5.038520   6.402800  50.822600 -11.055500  87.200800  -9.249870 -28.570600  45.571400  16.526800 -51.493900  19.784900 -59.177800  45.720400  91.636700  -3.082420   0.035610   0.002634  -6.541170   0.008317   0.030354  24.770100   4.569040   9.712100  20.554000   0.016609   0.000606  14.387900   0.011611  -0.008372  87.876700  -0.074516   0.038790  87.695700   0.042637   0.050095  65.771900   0.047846  -0.015808  88.373600  -5.021650  -0.113399  88.582200   0.036580   0.036224  66.436700   0.036353  -0.011660  31.166800  -3.935660  -6.487490  47.093900   0.022214  -0.013696  31.364500   0.011751  -0.015591  -6.970420  21.544300  -0.988422  -2.578270   2.209530  15.506100   1.048410  -3.323620   6.192830  -0.000000   0.000000   0.000000 -12.087100   8.034050   0.063585  -3.658460  26.941700 -10.128300   6.451910  -8.658400  -2.145170  -0.000000   0.000000   0.000000
  8.872360  87.962100  -5.093100   3.972270 -22.577900   0.542610  -3.199090  11.245500   2.182080  -7.049960  22.337400   5.167230  -1.335090  -0.924466  -0.024557  -2.195370  -1.871340   5.050880   0.366086  -8.830010   4.880660 -41.944100  -7.372480 -84.750800  -7.967150 -38.340700 -53.422800 -22.049200 -47.972100 -21.844800  52.316900  44.202700 -82.072500 -25.392900   0.266706   0.126682  -7.696470   0.154244  -0.130790 -24.682200  -0.439293   1.142400 -20.076100   0.103677   0.013777 -14.053300   0.067983   0.027453 -87.374000  -1.469560   0.134090 -87.247500   0.211805  -0.191659 -65.435800   0.197428   0.082284 -77.482300  -5.067410   1.019280 -77.519200   0.038972  -0.219415 -58.139300   0.154122  -0.064024 -27.062700  -8.606650  16.434200 -42.361600   0.012307   0.009168 -28.212900   0.004201   0.010114  -1.149650  -4.875430   6.295990  50.075500 -10.166300  85.642600  -9.653020 -27.563700  44.472600  14.336800 -50.594900  18.099300 -58.662600  45.352700  90.791000  -0.066979   0.026325   0.000095  -5.033450   0.005692   0.025271  25.310900   4.089150   8.512850  20.929700   0.008939   0.000371  14.650800   0.007872  -0.008642  86.043200  -0.092101   0.030172  86.018800   0.035459   0.047105  64.514200   0.044098  -0.009265  87.325700  -5.028600  -0.197877  87.205300   0.032156   0.033352  65.404000   0.033367  -0.011948  31.744500  -3.895740  -6.276350  47.944300   0.018175  -0.011157  31.930900   0.013356  -0.013518  -6.718630  21.393800  -1.095650  -2.561990   2.182100  15.561200   1.008540  -3.301380   6.215640   0.000000   0.000000   0.000000 -11.804100   8.084750   0.064641  -3.628090  26.504200 -10.189200   6.318380  -8.470280  -2.197750  -0.000000   0.000000  -0.000000
